<svg width="428" height="46" viewBox="0 0 428 46" fill="none" xmlns="http://www.w3.org/2000/svg">
<path d="M75.978 10.08C75.978 7.938 75.684 6.363 75.096 5.355C74.508 4.305 73.332 3.78 71.568 3.78H70.308V2.52H75.978C77.532 2.52 78.687 2.73 79.443 3.15C80.241 3.528 80.808 4.242 81.144 5.292C81.48 6.342 81.648 7.938 81.648 10.08V41.58H104.013V44.1H75.978V10.08Z" fill="url(#paint0_linear_24_27)"/>
<path d="M123.164 44.73C119.132 44.73 115.94 44.058 113.588 42.714C111.236 41.328 109.556 39.291 108.548 36.603C107.582 33.915 107.099 30.429 107.099 26.145V10.08C107.099 7.938 106.805 6.363 106.217 5.355C105.629 4.305 104.453 3.78 102.689 3.78H101.429V2.52H107.099C108.653 2.52 109.808 2.73 110.564 3.15C111.362 3.528 111.929 4.242 112.265 5.292C112.601 6.342 112.769 7.938 112.769 10.08V28.035C112.769 32.697 113.63 36.225 115.352 38.619C117.074 41.013 119.93 42.21 123.92 42.21C127.112 42.21 129.632 41.643 131.48 40.509C133.37 39.375 134.714 37.653 135.512 35.343C136.31 33.033 136.709 29.967 136.709 26.145V2.52H139.229V26.145C139.229 30.513 138.767 34.041 137.843 36.729C136.919 39.375 135.281 41.37 132.929 42.714C130.619 44.058 127.364 44.73 123.164 44.73Z" fill="url(#paint1_linear_24_27)"/>
<path d="M153.626 10.71C152.618 9.24 151.736 8.085 150.98 7.245C150.224 6.363 149.237 5.586 148.019 4.914C146.801 4.242 145.31 3.864 143.546 3.78V2.52H151.106C152.954 2.52 154.508 3.129 155.768 4.347C157.028 5.523 158.414 7.224 159.926 9.45L166.226 18.9L178.826 2.52H181.976L167.801 21.105L177.881 35.91C179.183 37.842 180.569 39.459 182.039 40.761C183.551 42.021 185.21 42.714 187.016 42.84V44.1H180.401C178.595 44.1 176.999 43.47 175.613 42.21C174.227 40.908 172.883 39.228 171.581 37.17L164.021 25.83L149.846 44.1H146.696L162.446 23.625L153.626 10.71Z" fill="url(#paint2_linear_24_27)"/>
<path d="M208.435 44.73C204.403 44.73 201.211 44.058 198.859 42.714C196.507 41.328 194.827 39.291 193.819 36.603C192.853 33.915 192.37 30.429 192.37 26.145V10.08C192.37 7.938 192.076 6.363 191.488 5.355C190.9 4.305 189.724 3.78 187.96 3.78H186.7V2.52H192.37C193.924 2.52 195.079 2.73 195.835 3.15C196.633 3.528 197.2 4.242 197.536 5.292C197.872 6.342 198.04 7.938 198.04 10.08V28.035C198.04 32.697 198.901 36.225 200.623 38.619C202.345 41.013 205.201 42.21 209.191 42.21C212.383 42.21 214.903 41.643 216.751 40.509C218.641 39.375 219.985 37.653 220.783 35.343C221.581 33.033 221.98 29.967 221.98 26.145V2.52H224.5V26.145C224.5 30.513 224.038 34.041 223.114 36.729C222.19 39.375 220.552 41.37 218.2 42.714C215.89 44.058 212.635 44.73 208.435 44.73Z" fill="url(#paint3_linear_24_27)"/>
<path d="M263.782 44.73C261.556 44.73 259.603 44.079 257.923 42.777C256.285 41.433 254.458 39.039 252.442 35.595L246.142 24.885H241.732V44.1H236.062V10.08C236.062 7.938 235.768 6.363 235.18 5.355C234.592 4.305 233.416 3.78 231.652 3.78H230.392V2.52H246.772C250.762 2.52 254.374 3.318 257.608 4.914C260.884 6.468 262.522 9.45 262.522 13.86C262.522 19.446 259.162 23.016 252.442 24.57L259.057 35.595C260.611 38.199 261.997 40.026 263.215 41.076C264.475 42.084 265.924 42.672 267.562 42.84V44.1C267.184 44.268 266.638 44.415 265.924 44.541C265.252 44.667 264.538 44.73 263.782 44.73ZM246.457 22.68C247.759 22.68 249.166 22.365 250.678 21.735C252.232 21.105 253.534 20.118 254.584 18.774C255.676 17.43 256.222 15.792 256.222 13.86C256.222 11.802 255.676 10.101 254.584 8.757C253.534 7.371 252.232 6.363 250.678 5.733C249.166 5.061 247.759 4.725 246.457 4.725C244.987 4.725 243.412 4.935 241.732 5.355V22.05C243.412 22.47 244.987 22.68 246.457 22.68Z" fill="url(#paint4_linear_24_27)"/>
<path d="M277.31 5.04C272.06 5.04 269.435 7.455 269.435 12.285H268.175V7.56C268.175 4.2 269.96 2.52 273.53 2.52H302.825V5.04H288.65V44.1H282.98V5.04H277.31Z" fill="url(#paint5_linear_24_27)"/>
<path d="M323.425 45.36C319.519 45.36 316.075 44.394 313.093 42.462C310.153 40.53 307.885 37.884 306.289 34.524C304.693 31.164 303.895 27.426 303.895 23.31C303.895 19.194 304.693 15.456 306.289 12.096C307.885 8.736 310.153 6.09 313.093 4.158C316.075 2.226 319.519 1.26 323.425 1.26C327.331 1.26 330.754 2.226 333.694 4.158C336.676 6.09 338.965 8.736 340.561 12.096C342.157 15.456 342.955 19.194 342.955 23.31C342.955 27.426 342.157 31.164 340.561 34.524C338.965 37.884 336.676 40.53 333.694 42.462C330.754 44.394 327.331 45.36 323.425 45.36ZM323.425 42.84C326.155 42.84 328.507 42.042 330.481 40.446C332.497 38.85 334.03 36.603 335.08 33.705C336.13 30.765 336.655 27.3 336.655 23.31C336.655 19.32 336.13 15.876 335.08 12.978C334.03 10.038 332.497 7.77 330.481 6.174C328.507 4.578 326.155 3.78 323.425 3.78C320.695 3.78 318.322 4.578 316.306 6.174C314.332 7.77 312.82 10.038 311.77 12.978C310.72 15.876 310.195 19.32 310.195 23.31C310.195 27.3 310.72 30.765 311.77 33.705C312.82 36.603 314.332 38.85 316.306 40.446C318.322 42.042 320.695 42.84 323.425 42.84Z" fill="url(#paint6_linear_24_27)"/>
<path d="M368.15 44.73C364.118 44.73 360.926 44.058 358.574 42.714C356.222 41.328 354.542 39.291 353.534 36.603C352.568 33.915 352.085 30.429 352.085 26.145V10.08C352.085 7.938 351.791 6.363 351.203 5.355C350.615 4.305 349.439 3.78 347.675 3.78H346.415V2.52H352.085C353.639 2.52 354.794 2.73 355.55 3.15C356.348 3.528 356.915 4.242 357.251 5.292C357.587 6.342 357.755 7.938 357.755 10.08V28.035C357.755 32.697 358.616 36.225 360.338 38.619C362.06 41.013 364.916 42.21 368.906 42.21C372.098 42.21 374.618 41.643 376.466 40.509C378.356 39.375 379.7 37.653 380.498 35.343C381.296 33.033 381.695 29.967 381.695 26.145V2.52H384.215V26.145C384.215 30.513 383.753 34.041 382.829 36.729C381.905 39.375 380.267 41.37 377.915 42.714C375.605 44.058 372.35 44.73 368.15 44.73Z" fill="url(#paint7_linear_24_27)"/>
<path d="M423.497 44.73C421.271 44.73 419.318 44.079 417.638 42.777C416 41.433 414.173 39.039 412.157 35.595L405.857 24.885H401.447V44.1H395.777V10.08C395.777 7.938 395.483 6.363 394.895 5.355C394.307 4.305 393.131 3.78 391.367 3.78H390.107V2.52H406.487C410.477 2.52 414.089 3.318 417.323 4.914C420.599 6.468 422.237 9.45 422.237 13.86C422.237 19.446 418.877 23.016 412.157 24.57L418.772 35.595C420.326 38.199 421.712 40.026 422.93 41.076C424.19 42.084 425.639 42.672 427.277 42.84V44.1C426.899 44.268 426.353 44.415 425.639 44.541C424.967 44.667 424.253 44.73 423.497 44.73ZM406.172 22.68C407.474 22.68 408.881 22.365 410.393 21.735C411.947 21.105 413.249 20.118 414.299 18.774C415.391 17.43 415.937 15.792 415.937 13.86C415.937 11.802 415.391 10.101 414.299 8.757C413.249 7.371 411.947 6.363 410.393 5.733C408.881 5.061 407.474 4.725 406.172 4.725C404.702 4.725 403.127 4.935 401.447 5.355V22.05C403.127 22.47 404.702 22.68 406.172 22.68Z" fill="url(#paint8_linear_24_27)"/>
<path fill-rule="evenodd" clip-rule="evenodd" d="M24.6698 38.7023C24.4515 38.6943 24.2353 38.6864 24.0212 38.6792C24.2368 38.6936 24.4531 38.7013 24.6698 38.7023ZM14.2514 27.394C14.2678 27.2338 14.2839 27.0733 14.2998 26.9126C14.28 27.0727 14.2639 27.2333 14.2514 27.394Z" fill="url(#paint9_linear_24_27)"/>
<path fill-rule="evenodd" clip-rule="evenodd" d="M37.2802 6.44766C37.4985 6.45575 37.7147 6.46356 37.9288 6.47083C37.7132 6.45644 37.4969 6.4487 37.2802 6.44766ZM47.6986 17.756C47.6822 17.9162 47.6661 18.0767 47.6502 18.2374C47.67 18.0773 47.6861 17.9167 47.6986 17.756Z" fill="url(#paint10_linear_24_27)"/>
<path d="M3.48838 39.0963C2.41647 41.0727 1.24261 42.5374 0 43.407C3.76494 42.9981 7.96302 42.7401 11.8938 42.6297C16.6852 42.4222 21.5618 42.4411 26.3783 42.6905C34.1553 43.0933 42.8755 43.6447 49.35 45.15C41.397 43.3009 37.6244 39.3274 28.0714 38.8327C26.852 38.7696 25.7596 38.7426 24.6733 38.7023C24.4538 38.6942 24.2365 38.6865 24.0212 38.6792C24.2353 38.6864 24.4515 38.6943 24.6698 38.7023C24.4531 38.7013 24.2368 38.6936 24.0212 38.6792C22.6919 38.5905 21.3896 38.2494 20.1845 37.6722C18.7839 37.0014 17.5496 36.0283 16.5705 34.8229C15.5913 33.6176 14.8917 32.2101 14.5221 30.7018C14.2564 29.6178 14.1659 28.5012 14.2514 27.394C14.2639 27.2333 14.28 27.0727 14.2998 26.9126C14.3712 26.1913 14.4384 25.4648 14.5012 24.7337C14.9411 19.6199 15.1716 14.283 15.172 8.9779V8.07923C15.1719 7.43472 15.1566 6.83609 15.1281 6.28409C15.0554 4.87593 14.8907 3.76727 14.6328 2.96122C14.2736 1.83969 13.6682 1.07679 12.8157 0.672904C12.0077 0.224009 10.7723 0 9.11143 0H4.2C6.08495 3.47545e-05 7.54039 1.90733 8.16893 3.02917C8.61971 3.80193 8.90508 4.88774 9.03252 6.28409C9.0827 6.83409 9.11141 7.4325 9.11143 8.07923V8.9779L9.10957 8.96618C9.10957 16.9562 8.20706 24.7113 6.5502 30.967C5.69025 34.2136 4.64947 36.9554 3.48838 39.0963Z" fill="url(#paint11_linear_24_27)"/>
<path d="M58.4616 6.05375C59.5335 4.07729 60.7074 2.61261 61.95 1.743C58.1851 2.15194 53.987 2.40988 50.0562 2.5203C45.2648 2.72784 40.3882 2.70888 35.5717 2.45948C27.7947 2.05674 19.0745 1.50532 12.6 0C20.553 1.84906 24.3256 5.82255 33.8786 6.31727C35.098 6.38041 36.1904 6.40739 37.2767 6.44766C37.4962 6.45579 37.7135 6.46352 37.9288 6.47083C37.7147 6.46356 37.4985 6.45575 37.2802 6.44766C37.4969 6.4487 37.7132 6.45644 37.9288 6.47083C39.2581 6.55952 40.5604 6.90055 41.7655 7.47777C43.1661 8.1486 44.4004 9.12173 45.3795 10.3271C46.3587 11.5324 47.0583 12.9399 47.4279 14.4482C47.6936 15.5322 47.7841 16.6488 47.6986 17.756C47.6861 17.9167 47.67 18.0773 47.6502 18.2374C47.5788 18.9586 47.5117 19.6852 47.4488 20.4163C47.0089 25.5301 46.7784 30.867 46.778 36.1721V37.0708C46.7781 37.7153 46.7934 38.3139 46.8219 38.8659C46.8946 40.2741 47.0593 41.3827 47.3173 42.1888C47.6764 43.3103 48.2818 44.0732 49.1343 44.4771C49.9423 44.926 51.1777 45.15 52.8386 45.15H57.75C55.8651 45.15 54.4096 43.2427 53.7811 42.1208C53.3303 41.3481 53.0449 40.2623 52.9175 38.8659C52.8673 38.3159 52.8386 37.7175 52.8386 37.0708V36.1721L52.8404 36.1838C52.8404 28.1938 53.7429 20.4387 55.3998 14.183C56.2598 10.9364 57.3005 8.19464 58.4616 6.05375Z" fill="url(#paint12_linear_24_27)"/>
<defs>
<linearGradient id="paint0_linear_24_27" x1="37.275" y1="45.15" x2="37.275" y2="0" gradientUnits="userSpaceOnUse">
<stop stop-color="#D4AF37"/>
<stop offset="1" stop-color="#A57C01"/>
</linearGradient>
<linearGradient id="paint1_linear_24_27" x1="37.275" y1="45.15" x2="37.275" y2="0" gradientUnits="userSpaceOnUse">
<stop stop-color="#D4AF37"/>
<stop offset="1" stop-color="#A57C01"/>
</linearGradient>
<linearGradient id="paint2_linear_24_27" x1="37.275" y1="45.15" x2="37.275" y2="0" gradientUnits="userSpaceOnUse">
<stop stop-color="#D4AF37"/>
<stop offset="1" stop-color="#A57C01"/>
</linearGradient>
<linearGradient id="paint3_linear_24_27" x1="37.275" y1="45.15" x2="37.275" y2="0" gradientUnits="userSpaceOnUse">
<stop stop-color="#D4AF37"/>
<stop offset="1" stop-color="#A57C01"/>
</linearGradient>
<linearGradient id="paint4_linear_24_27" x1="37.275" y1="45.15" x2="37.275" y2="0" gradientUnits="userSpaceOnUse">
<stop stop-color="#D4AF37"/>
<stop offset="1" stop-color="#A57C01"/>
</linearGradient>
<linearGradient id="paint5_linear_24_27" x1="37.275" y1="45.15" x2="37.275" y2="0" gradientUnits="userSpaceOnUse">
<stop stop-color="#D4AF37"/>
<stop offset="1" stop-color="#A57C01"/>
</linearGradient>
<linearGradient id="paint6_linear_24_27" x1="37.275" y1="45.15" x2="37.275" y2="0" gradientUnits="userSpaceOnUse">
<stop stop-color="#D4AF37"/>
<stop offset="1" stop-color="#A57C01"/>
</linearGradient>
<linearGradient id="paint7_linear_24_27" x1="37.275" y1="45.15" x2="37.275" y2="0" gradientUnits="userSpaceOnUse">
<stop stop-color="#D4AF37"/>
<stop offset="1" stop-color="#A57C01"/>
</linearGradient>
<linearGradient id="paint8_linear_24_27" x1="37.275" y1="45.15" x2="37.275" y2="0" gradientUnits="userSpaceOnUse">
<stop stop-color="#D4AF37"/>
<stop offset="1" stop-color="#A57C01"/>
</linearGradient>
<linearGradient id="paint9_linear_24_27" x1="37.275" y1="45.15" x2="37.275" y2="0" gradientUnits="userSpaceOnUse">
<stop stop-color="#D4AF37"/>
<stop offset="1" stop-color="#A57C01"/>
</linearGradient>
<linearGradient id="paint10_linear_24_27" x1="37.275" y1="45.15" x2="37.275" y2="0" gradientUnits="userSpaceOnUse">
<stop stop-color="#D4AF37"/>
<stop offset="1" stop-color="#A57C01"/>
</linearGradient>
<linearGradient id="paint11_linear_24_27" x1="37.275" y1="45.15" x2="37.275" y2="0" gradientUnits="userSpaceOnUse">
<stop stop-color="#D4AF37"/>
<stop offset="1" stop-color="#A57C01"/>
</linearGradient>
<linearGradient id="paint12_linear_24_27" x1="37.275" y1="45.15" x2="37.275" y2="0" gradientUnits="userSpaceOnUse">
<stop stop-color="#D4AF37"/>
<stop offset="1" stop-color="#A57C01"/>
</linearGradient>
</defs>
</svg>
